<svg width="461" height="447" viewBox="0 0 461 447" fill="none" xmlns="http://www.w3.org/2000/svg">
<path d="M59.6757 273.155L47.5389 446.563H53.6073L72.821 275.031L59.6757 273.155Z" fill="#5E5DBA"/>
<path d="M187.123 273.155L199.255 446.563H193.187L173.978 275.031L187.123 273.155Z" fill="#5E5DBA"/>
<path d="M6.72 85.5516C6.72 85.5516 103.712 82.677 109.992 83.1272C116.271 83.5774 122.072 103.756 122.072 103.756C122.072 103.756 150.403 208.863 149.84 211.757C149.277 214.65 176.271 282.379 176.271 282.379C176.271 282.379 152.982 281.76 151.955 282.379C150.924 282.998 61.8943 274.74 60.6609 273.914C59.4228 273.089 54.8925 257.6 54.6861 256.775C54.4798 255.949 47.6797 195.649 47.6797 195.649L44.1767 162.401C44.1767 162.401 30.7829 133.876 30.5766 133.787C30.3702 133.697 18.0034 108.712 17.1828 107.47C16.3574 106.232 3.58269 92.3934 3.16998 91.1554C2.75261 89.9174 6.72 85.5516 6.72 85.5516Z" fill="#57ACE5"/>
<path opacity="0.3" d="M6.72 85.5515C6.72 85.5515 40.1576 84.5621 69.0415 83.8352C57.819 90.4378 51.5207 108.914 56.1963 141.772C60.1638 169.698 64.5769 200.005 82.1632 236.348C91.219 255.068 130.219 244.582 162.183 246.435C169.068 264.306 176.271 282.379 176.271 282.379C176.271 282.379 152.982 281.76 151.955 282.379C150.924 282.998 61.8943 274.74 60.6609 273.914C59.4228 273.089 54.8925 257.6 54.6861 256.775C54.4798 255.949 47.6797 195.649 47.6797 195.649L44.1767 162.401C44.1767 162.401 30.7829 133.876 30.5766 133.786C30.3702 133.697 18.0034 108.712 17.1828 107.47C16.3574 106.232 3.58269 92.3933 3.16998 91.1553C2.75261 89.9173 6.72 85.5515 6.72 85.5515Z" fill="#57ACE5"/>
<path d="M193.994 286.079C194.2 282.759 191.7 279.898 188.394 279.673C178.03 278.969 155.613 277.366 132.563 275.18C88.3723 270.988 72.3945 267.556 66.6778 265.764C64.7034 265.145 63.1887 263.541 62.6822 261.534C61.1299 255.359 60.22 242.538 59.4603 231.813C56.5761 191.119 51.8162 124.014 9.99826 87.1693C7.39079 84.8715 3.37154 85.2795 1.2518 88.0416C-0.675659 90.5551 -0.347305 94.1472 2.03036 96.2339C40.1247 129.683 44.5001 191.363 47.4265 232.671C49.096 256.221 50.1277 267.781 55.2723 273.155C57.7532 275.748 62.3679 280.573 129.557 287.031C153.395 289.319 176.857 291.002 187.573 291.729C190.912 291.954 193.787 289.417 193.994 286.079Z" fill="#026EAF"/>
<path d="M186.742 39.0499C181.86 20.0158 174.084 12.4659 160.573 5.36152C150.223 -0.0828436 137.997 -1.832 125.452 2.22899C99.8744 10.5151 93.2761 38.5482 90.692 53.0383C81.8848 102.45 40.5591 144.481 55.5943 178.296C70.6342 212.111 141.224 208.486 141.224 208.486L173.601 185.157C173.601 185.157 176.476 128.354 176.485 123.717C176.495 119.079 188.754 119.412 188.754 96.1946C188.754 77.6857 192.487 61.437 186.742 39.0499Z" fill="#333333"/>
<path d="M272.479 108.931C272.526 109.503 273.187 109.803 273.642 109.447C277.15 106.704 288.236 98.1503 289.137 98.8865C290.206 99.7635 280.484 107.646 280.911 108.856C281.338 110.066 290.628 102.136 291.617 103.252C292.612 104.373 283.898 111.318 284.152 111.937C284.405 112.556 293.465 106.793 294.441 107.102C295.416 107.412 286.496 114.741 286.59 115.576C286.684 116.415 294.52 113.405 294.858 114.052C295.196 114.699 295.524 115.07 279.818 126.906L273.435 131.3L266.293 132.069L262.241 124.425C262.241 124.425 269.243 100.073 270.237 99.7588C271.189 99.4586 271.761 100.101 272.479 108.931Z" fill="#FFC0BB"/>
<path d="M165.596 97.7786C165.596 97.7786 220.325 159.857 222.632 160.128C224.939 160.4 261.622 117.441 261.622 117.441C261.622 117.441 274.767 128.381 277.051 132.175C277.051 132.175 237.864 197.493 227.8 201.198C217.736 204.903 150.903 141.849 150.903 141.849L165.596 97.7786Z" fill="#F0A914"/>
<path d="M171.979 177.705L171.322 178.042C171.322 178.042 171.261 177.531 171.153 176.635C171.43 177.001 171.707 177.358 171.979 177.705Z" fill="#F4A640"/>
<path d="M121.265 98.3764C124.055 101.162 125.973 104.698 127.033 108.496C130.761 121.851 143.194 165.2 148.437 168.154C154.636 171.648 233.053 188.445 240.8 187.76C248.552 187.081 255.845 194.813 257.397 200.769H228.649H226.656H125.964C125.964 200.769 99.6686 168.379 96.7328 134.292C94.116 103.933 108.279 85.4243 121.265 98.3764Z" fill="#FFC0BB"/>
<path d="M131.328 73.0732V94.9867C131.328 96.2059 132.023 97.3126 133.125 97.8284C136.468 99.3993 143.944 101.969 150.922 97.8707C151.864 97.3173 152.418 96.281 152.418 95.1837V75.3898L131.328 73.0732Z" fill="#FFC0BB"/>
<path d="M131.329 84.8063V73.0688L152.423 75.39V85.3455C148.465 86.5507 141.097 87.7465 131.329 84.8063Z" fill="#F99893"/>
<path d="M166.281 69.323C167.022 67.8084 167.622 66.214 168.082 64.5539C169.399 60.0943 169.897 55.4237 170.009 51.3721C170.033 50.5046 170.108 49.637 170.197 48.7742C170.563 45.2806 170.3 41.6228 169.231 37.9136C165.798 25.9838 154.739 17.5851 142.349 17.5195C125.659 17.4304 112.833 31.5126 113.949 47.7519C112.12 46.8938 110.122 46.8 108.438 47.7003C105.198 49.426 104.316 54.1154 106.473 58.1764C108.626 62.2327 113.001 64.1225 116.242 62.3968C116.692 62.1577 117.091 61.8575 117.447 61.5105C119.801 75.2316 131.835 85.1168 145.37 83.9586C151.991 83.3911 157.807 80.2774 162.023 75.6208C162.309 75.3489 162.604 75.03 162.914 74.6595C164.274 73.0464 165.376 71.2363 166.281 69.323Z" fill="#FFC0BB"/>
<path d="M140.811 51.9359C140.919 53.188 139.99 54.2853 138.743 54.3932C137.495 54.501 136.398 53.5725 136.29 52.3205C136.182 51.0684 137.111 49.9711 138.358 49.8633C139.606 49.7554 140.703 50.6839 140.811 51.9359Z" fill="#333333"/>
<path d="M160.325 51.5466C160.433 52.7986 159.504 53.8959 158.257 54.0038C157.009 54.1116 155.912 53.1831 155.804 51.9311C155.696 50.6791 156.625 49.5818 157.872 49.4739C159.12 49.3708 160.217 50.2946 160.325 51.5466Z" fill="#333333"/>
<path d="M143.151 47.2089C142.007 46.8478 140.919 46.5711 139.836 46.4163C138.757 46.2569 137.697 46.2382 136.661 46.3835C135.634 46.5383 134.607 46.7821 133.626 47.2604L133.246 47.4152C133.12 47.4714 133.007 47.5512 132.881 47.6075L132.135 47.9966C131.633 48.2686 131.173 48.6063 130.615 48.8782C130.901 48.3577 131.235 47.8419 131.619 47.373C132.051 46.9556 132.444 46.4586 132.974 46.135C133.959 45.3706 135.197 44.9205 136.45 44.7423C137.711 44.5688 139.006 44.7282 140.164 45.1596C141.318 45.6051 142.382 46.271 143.151 47.2089Z" fill="#333333"/>
<path d="M152.287 46.8944C152.99 45.905 154.008 45.1688 155.129 44.6436C156.254 44.1325 157.534 43.8839 158.805 43.9683C160.067 44.0621 161.333 44.4232 162.365 45.1173C162.918 45.4033 163.345 45.8722 163.805 46.2614C164.222 46.7069 164.588 47.1946 164.907 47.6964C164.335 47.4666 163.847 47.1571 163.331 46.9226L162.557 46.585C162.426 46.5334 162.309 46.463 162.182 46.4161L161.793 46.2896C160.784 45.8816 159.739 45.7081 158.707 45.6237C157.666 45.5533 156.611 45.6424 155.546 45.8769C154.472 46.1067 153.403 46.4583 152.287 46.8944Z" fill="#333333"/>
<path d="M148.019 49.23C148.948 50.3554 149.773 51.556 150.542 52.794C151.311 54.032 152.01 55.3122 152.606 56.6674C152.887 57.352 153.154 58.046 153.309 58.8104C153.342 59.0074 153.365 59.2043 153.37 59.42C153.375 59.5279 153.361 59.6451 153.351 59.753C153.323 59.8749 153.309 59.9968 153.239 60.1281C153.206 60.1938 153.168 60.2594 153.126 60.3204L153.028 60.4329C152.962 60.5079 152.896 60.583 152.826 60.6534C152.681 60.7847 152.545 60.9206 152.395 61.0332C151.808 61.5162 151.166 61.8867 150.514 62.2243C149.857 62.5479 149.187 62.8432 148.488 63.0636C149.703 62.2665 150.927 61.474 151.93 60.5127C152.057 60.3954 152.165 60.2641 152.277 60.1422L152.432 59.95L152.507 59.8561C152.512 59.8374 152.517 59.8233 152.526 59.8092C152.592 59.6592 152.554 59.2934 152.479 58.9886C152.324 58.3415 152.066 57.6756 151.785 57.0284C151.227 55.7201 150.575 54.4352 149.937 53.1457C149.29 51.8467 148.633 50.5524 148.019 49.23Z" fill="#F99893"/>
<path d="M202.87 388.818L201.571 421.301L217.173 421.409L218.664 390.731L202.87 388.818Z" fill="#FFC0BB"/>
<path d="M242.667 439.952L197.814 440.257C196.834 440.262 196.046 439.493 196.055 438.531L196.065 437.237C196.074 436.276 196.876 435.493 197.856 435.488L242.709 435.183C243.689 435.178 244.477 435.948 244.467 436.909L244.453 438.203C244.449 439.164 243.647 439.948 242.667 439.952Z" fill="white"/>
<path d="M198.424 420.988L196.703 434.269C196.492 435.905 197.411 437.387 198.64 437.378L241.292 437.092C242.399 437.082 243.501 436.398 244.092 435.122C244.702 433.814 244.838 431.844 242.953 429.213C239.182 423.952 226.646 422.747 220.55 418.273L200.68 418.409C199.573 418.414 198.616 419.506 198.424 420.988Z" fill="#09083C"/>
<path d="M217.464 426.001C217.159 425.818 217.052 425.312 217.23 424.922C218.083 423.098 220.738 418.653 226.061 419.53C226.365 419.581 226.572 419.98 226.515 420.393V420.407C226.459 420.805 226.182 421.073 225.882 421.021C221.118 420.257 218.857 424.172 218.163 425.701C218.018 426.02 217.722 426.151 217.464 426.001Z" fill="white"/>
<path d="M221.882 427.675C221.577 427.493 221.469 426.986 221.647 426.597C222.501 424.773 225.155 420.332 230.473 421.204C230.783 421.256 230.985 421.654 230.928 422.067V422.081C230.872 422.48 230.595 422.747 230.295 422.695C225.53 421.931 223.27 425.847 222.576 427.375C222.435 427.699 222.135 427.83 221.882 427.675Z" fill="white"/>
<path d="M225.985 429.242C225.681 429.059 225.573 428.552 225.751 428.163C226.605 426.339 229.259 421.898 234.577 422.77C234.886 422.822 235.088 423.221 235.032 423.633V423.647C234.976 424.046 234.699 424.313 234.399 424.262C229.634 423.497 227.374 427.413 226.68 428.942C226.539 429.265 226.243 429.396 225.985 429.242Z" fill="white"/>
<path opacity="0.3" d="M210.026 437.298C206.762 426.602 200.98 425.457 197.814 425.725L196.708 434.264C196.497 435.901 197.416 437.382 198.644 437.373L210.026 437.298Z" fill="#E87B50"/>
<path d="M276.301 388.815L275.002 419.891L290.604 419.999L292.096 390.728L276.301 388.815Z" fill="#FFC0BB"/>
<path d="M316.098 439.958L271.245 440.263C270.265 440.268 269.477 439.499 269.487 438.537L269.496 437.243C269.506 436.282 270.308 435.499 271.288 435.494L316.14 435.189C317.12 435.185 317.908 435.954 317.899 436.915L317.889 438.209C317.88 439.171 317.078 439.954 316.098 439.958Z" fill="white"/>
<path d="M271.855 420.994L270.134 434.275C269.923 435.911 270.842 437.393 272.071 437.384L314.724 437.098C315.83 437.088 316.932 436.404 317.528 435.128C318.138 433.82 318.274 431.85 316.389 429.22C312.618 423.958 300.082 422.753 293.981 418.279L274.111 418.415C273.004 418.42 272.048 419.513 271.855 420.994Z" fill="#09083C"/>
<path d="M290.895 426.007C290.591 425.825 290.483 425.318 290.661 424.929C291.515 423.105 294.169 418.659 299.487 419.536C299.797 419.588 299.998 419.986 299.942 420.399V420.413C299.886 420.812 299.609 421.079 299.314 421.027C294.549 420.263 292.288 424.179 291.594 425.707C291.454 426.026 291.153 426.157 290.895 426.007Z" fill="white"/>
<path d="M295.313 427.682C295.008 427.499 294.9 426.992 295.079 426.603C295.932 424.779 298.586 420.338 303.904 421.21C304.214 421.262 304.416 421.661 304.359 422.073V422.087C304.303 422.486 304.026 422.753 303.726 422.702C298.962 421.937 296.701 425.853 296.007 427.381C295.866 427.705 295.566 427.836 295.313 427.682Z" fill="white"/>
<path d="M299.417 429.248C299.112 429.065 299.004 428.558 299.182 428.169C300.036 426.345 302.69 421.904 308.013 422.777C308.318 422.828 308.524 423.227 308.468 423.639V423.653C308.412 424.052 308.135 424.319 307.835 424.268C303.07 423.503 300.81 427.419 300.116 428.948C299.97 429.271 299.675 429.403 299.417 429.248Z" fill="white"/>
<path opacity="0.3" d="M283.458 437.304C280.194 426.608 274.411 425.464 271.246 425.731L270.139 434.27C269.928 435.907 270.847 437.389 272.076 437.379L283.458 437.304Z" fill="#E87B50"/>
<path d="M211.761 219.231C211.761 219.231 289.39 219.513 301.367 235.119C313.345 250.725 322.452 356.114 301.367 402.211C301.367 402.211 274.055 403.172 267.827 399.331C267.827 399.331 269.745 321.549 268.783 300.901C267.822 280.254 253.448 277.375 251.535 275.452C249.612 273.525 211.761 219.231 211.761 219.231Z" fill="#09083C"/>
<path d="M202.987 332.32C203.686 325.83 204.595 317.403 205.58 307.861C207.339 289.122 209.552 277.896 207.203 278.121C188.5 279.931 137.636 270.847 107.589 264.976C89.3088 261.403 78.8461 241.459 86.9734 224.666C87.991 222.561 89.2244 220.704 90.6969 219.231C104.724 205.22 133.687 209.717 133.655 207.757C297.545 221.435 261.434 249.572 246.062 346.717C245.977 347.134 245.888 347.551 245.804 347.964C239.135 380.086 232.846 406.53 232.846 406.53C232.846 406.53 208.886 407.491 194.991 404.129C194.972 404.279 199.305 366.337 202.987 332.32Z" fill="#09083C"/>
<path d="M101.891 94.5134C107.233 89.463 119.89 88.3141 131.591 88.4735C131.427 88.5438 131.328 88.586 131.328 88.586C141.594 100.014 152.422 89.9272 152.422 89.9272C154.514 90.1804 155.743 90.3586 155.743 90.3586C155.743 90.3586 163.513 94.0492 171.903 104.469C172.02 104.614 181.029 114.246 181.916 125.688C182.549 133.843 172.086 145.75 172.086 150.411C172.086 155.072 176.907 188.845 176.907 188.845L175.088 188.62C175.088 188.718 175.092 188.803 175.088 188.845C175.073 189.272 178.816 189.862 183.581 190.449C183.792 196.484 183.899 200.24 183.899 200.24V212.02C121.531 222.374 84.1829 239.847 84.1829 239.847C81.0924 118.228 101.061 95.3012 101.891 94.5134Z" fill="#FDB827"/>
<path d="M121.264 98.3727C124.055 101.158 125.973 104.694 127.033 108.492C130.761 121.848 143.193 165.196 148.436 168.151C153.365 170.927 203.944 182.116 228.363 186.242C228.363 186.242 226.576 193.525 224.968 200.77H125.959C125.959 200.77 99.6635 168.38 96.7277 134.293C94.1156 103.93 108.279 85.4206 121.264 98.3727Z" fill="#F0A914"/>
<path d="M160.625 15.1653C160.625 15.1653 128.927 44.4224 113.949 47.7518C113.949 47.7518 111.955 25.0646 112.148 24.2908C112.34 23.5124 131.136 5.65522 132.299 5.84749C133.462 6.03975 167.561 10.8932 167.561 10.8932L176.908 33.9978L160.625 15.1653Z" fill="#333333"/>
<path d="M178.605 21.3761L170.337 44.823C170.337 44.823 153.67 33.0245 147.245 21.3761C140.825 9.72773 163.88 13.9997 163.88 13.9997L178.605 21.3761Z" fill="#333333"/>
<path opacity="0.3" d="M141.116 67.0505C141.116 67.0505 144.258 66.1689 147.006 68.265C147.006 68.265 150.261 66.5299 152.587 68.5698C152.587 68.5698 151.119 73.1373 146.021 72.462C140.919 71.7867 141.116 67.0505 141.116 67.0505Z" fill="#F99893"/>
<path d="M138.551 65.1934C139.099 65.7045 139.667 66.1781 140.276 66.6049C140.877 67.041 141.5 67.4349 142.152 67.7772C143.451 68.4618 144.835 68.9777 146.274 69.2028C147.709 69.4326 149.182 69.3575 150.608 69.0293C152.029 68.6823 153.393 68.0773 154.692 67.3364C154.106 67.8006 153.478 68.218 152.816 68.5791C152.155 68.9401 151.442 69.2121 150.72 69.4513C149.993 69.667 149.238 69.8077 148.474 69.8639C147.709 69.9108 146.94 69.8733 146.185 69.7608C144.675 69.5122 143.226 68.9542 141.937 68.157C140.652 67.3598 139.474 66.3751 138.551 65.1934Z" fill="#F99893"/>
<path d="M429.677 207.085H438.194V440.293H429.677V207.085Z" fill="#5E5DBA"/>
<path d="M349.305 207.086H357.822V440.294H349.305V207.086Z" fill="#5E5DBA"/>
<path d="M106.206 207.091H114.723V440.298H106.206V207.091Z" fill="#5E5DBA"/>
<path d="M25.8294 207.085H34.3457V440.293H25.8294V207.085Z" fill="#5E5DBA"/>
<path d="M5.59805 209.838H457.248C459.321 209.838 461 208.159 461 206.087V198.72C461 196.647 459.321 194.968 457.248 194.968H5.59805C3.52521 194.968 1.84628 196.647 1.84628 198.72V206.087C1.84628 208.155 3.52521 209.838 5.59805 209.838Z" fill="#FEE4CB"/>
<path opacity="0.5" d="M6.1557 209.838H130.958C133.031 209.838 134.71 208.159 134.71 206.087V198.72C134.71 196.647 133.031 194.968 130.958 194.968H6.1557C4.08284 194.968 2.40393 196.647 2.40393 198.72V206.087C2.40393 208.155 4.08284 209.838 6.1557 209.838Z" fill="#E0A689"/>
</svg>
