<svg width="462" height="463" viewBox="0 0 462 463" fill="none" xmlns="http://www.w3.org/2000/svg">
<path d="M200.821 173.834L203.498 198.388C203.498 198.388 193.614 199.625 189.289 200.863C184.963 202.1 172.746 177.981 172.746 177.981C172.746 177.981 185.788 172.391 186.407 172.391C187.025 172.391 200.821 173.834 200.821 173.834Z" fill="#F9B5B2"/>
<path d="M60.0649 287.401L47.9369 460.683H54.0009L73.2006 289.276L60.0649 287.401Z" fill="#07085B"/>
<path d="M187.419 287.401L199.542 460.683H193.478L174.283 289.276L187.419 287.401Z" fill="#07085B"/>
<path d="M7.14749 99.9356C7.14749 99.9356 104.069 97.0631 110.344 97.5129C116.619 97.9628 122.416 118.126 122.416 118.126C122.416 118.126 150.725 223.157 150.163 226.048C149.601 228.94 176.575 296.619 176.575 296.619C176.575 296.619 153.303 296 152.276 296.619C151.245 297.237 62.2814 288.985 61.0489 288.161C59.8117 287.336 55.2847 271.858 55.0785 271.033C54.8723 270.209 48.0772 209.952 48.0772 209.952L44.5767 176.729C44.5767 176.729 31.1928 148.224 30.9866 148.135C30.7804 148.046 18.4227 123.079 17.6026 121.838C16.7778 120.601 4.01245 106.772 3.60007 105.535C3.18298 104.298 7.14749 99.9356 7.14749 99.9356Z" fill="#FDB827"/>
<path opacity="0.3" d="M7.14749 99.9355C7.14749 99.9355 40.5606 98.9468 69.4233 98.2205C58.2091 104.818 51.9154 123.281 56.5876 156.115C60.5522 184.02 64.962 214.305 82.5355 250.621C91.5893 269.328 130.56 258.85 162.497 260.701C169.381 278.559 176.575 296.619 176.575 296.619C176.575 296.619 153.303 296 152.276 296.619C151.245 297.237 62.2814 288.985 61.0489 288.161C59.8117 287.336 55.2847 271.858 55.0785 271.033C54.8723 270.209 48.0772 209.952 48.0772 209.952L44.5767 176.729C44.5767 176.729 31.1928 148.224 30.9866 148.135C30.7804 148.046 18.4227 123.079 17.6026 121.838C16.7778 120.601 4.01245 106.772 3.60007 105.535C3.18298 104.298 7.14749 99.9355 7.14749 99.9355Z" fill="#FDB827"/>
<path d="M194.284 300.316C194.491 296.998 191.993 294.14 188.689 293.915C178.332 293.212 155.932 291.609 132.899 289.426C88.7402 285.236 72.7742 281.806 67.0616 280.016C65.0887 279.398 63.575 277.795 63.0689 275.79C61.5177 269.618 60.6086 256.807 59.8494 246.09C56.9673 205.425 52.2109 138.37 10.4235 101.552C7.8179 99.2559 3.80159 99.6636 1.6834 102.424C-0.242661 104.935 0.0854492 108.525 2.46138 110.61C40.5279 144.035 44.9001 205.669 47.8244 246.948C49.4927 270.48 50.5236 282.031 55.6645 287.401C58.1435 289.993 62.755 294.814 129.895 301.267C153.715 303.554 177.161 305.236 187.869 305.962C191.206 306.187 194.078 303.652 194.284 300.316Z" fill="#5E5DBA"/>
<path d="M191.383 214.896C191.383 214.896 188.731 121.627 183.806 110.896C178.881 100.165 161.452 98.1034 161.452 98.1034C161.452 98.1034 116.024 91.3557 104.219 102.513C103.338 103.347 82.798 130.605 86.0831 259.881C86.0831 259.881 125.096 238.419 191.383 227.417V214.896Z" fill="white"/>
<path d="M219.951 461.148L172.695 439.256C171.996 438.932 171.696 438.103 172.015 437.405L173.224 434.785C173.547 434.087 174.372 433.782 175.07 434.106L222.327 455.998C223.025 456.322 223.325 457.151 223.006 457.849L221.797 460.469C221.474 461.167 220.649 461.472 219.951 461.148Z" fill="black"/>
<path d="M183.309 418.937L175.052 432.494C174.035 434.167 174.255 436.215 175.516 436.8L219.384 457.123C220.523 457.653 221.985 457.442 223.217 456.345C224.482 455.221 225.584 453.154 224.937 449.391C223.667 442.002 211.82 434.762 207.546 427.124C207.392 426.852 207.167 426.632 206.886 426.501L186.885 417.236C185.741 416.702 184.228 417.424 183.309 418.937Z" fill="black"/>
<path d="M200.376 433.576C200.151 433.23 200.287 432.625 200.667 432.292C202.434 430.732 207.331 427.199 212.354 430.718C212.645 430.919 212.659 431.454 212.401 431.875L212.392 431.889C212.139 432.297 211.726 432.447 211.445 432.25C206.932 429.115 202.701 432.264 201.243 433.586C200.934 433.872 200.564 433.867 200.376 433.576Z" fill="black"/>
<path d="M204.084 437.531C203.859 437.184 203.994 436.58 204.374 436.247C206.141 434.687 211.038 431.154 216.061 434.673C216.352 434.874 216.366 435.409 216.108 435.83L216.099 435.844C215.846 436.252 215.433 436.402 215.152 436.205C210.639 433.07 206.408 436.219 204.955 437.541C204.641 437.822 204.271 437.817 204.084 437.531Z" fill="black"/>
<path d="M207.527 441.214C207.302 440.868 207.438 440.263 207.818 439.931C209.585 438.37 214.482 434.837 219.506 438.356C219.796 438.558 219.81 439.092 219.552 439.513L219.543 439.528C219.29 439.935 218.878 440.085 218.596 439.888C214.084 436.753 209.852 439.902 208.399 441.224C208.08 441.505 207.71 441.5 207.527 441.214Z" fill="black"/>
<path opacity="0.3" d="M187.48 440.029C188.365 430.034 184.696 425.985 181.636 424.345C180.947 423.975 180.075 424.242 179.658 424.931L175.052 432.494C174.035 434.167 174.255 436.215 175.516 436.8L185.324 441.346C186.28 441.786 187.381 441.102 187.48 440.029Z" fill="black"/>
<path d="M302.288 462.156L252.098 448.29C251.358 448.084 250.922 447.32 251.128 446.575L251.892 443.791C252.094 443.051 252.862 442.615 253.603 442.817L303.793 456.682C304.533 456.889 304.969 457.652 304.763 458.397L303.999 461.181C303.797 461.926 303.029 462.362 302.288 462.156Z" fill="black"/>
<path d="M259.254 426.509L253.316 441.233C252.585 443.051 253.138 445.033 254.479 445.403L301.07 458.271C302.279 458.604 303.69 458.158 304.725 456.875C305.789 455.558 306.539 453.341 305.288 449.733C302.827 442.653 289.963 437.447 284.499 430.61C284.302 430.366 284.045 430.188 283.745 430.104L262.502 424.237C261.293 423.909 259.92 424.869 259.254 426.509Z" fill="black"/>
<path d="M278.482 438.159C278.206 437.854 278.244 437.236 278.557 436.847C280.043 435.015 284.298 430.732 289.832 433.379C290.151 433.534 290.254 434.054 290.067 434.513L290.062 434.527C289.879 434.968 289.495 435.188 289.186 435.038C284.223 432.681 280.563 436.481 279.34 438.028C279.078 438.356 278.712 438.412 278.482 438.159Z" fill="black"/>
<path d="M282.784 441.453C282.507 441.148 282.545 440.53 282.859 440.141C284.344 438.309 288.604 434.026 294.134 436.678C294.453 436.833 294.556 437.353 294.368 437.812L294.364 437.826C294.181 438.271 293.797 438.487 293.487 438.337C288.525 435.98 284.865 439.78 283.641 441.326C283.379 441.65 283.013 441.706 282.784 441.453Z" fill="black"/>
<path d="M286.782 444.522C286.5 444.218 286.538 443.599 286.857 443.21C288.342 441.378 292.597 437.095 298.132 439.747C298.45 439.902 298.553 440.422 298.366 440.881L298.361 440.896C298.178 441.341 297.794 441.556 297.485 441.406C292.522 439.049 288.862 442.85 287.639 444.396C287.377 444.724 287.011 444.78 286.782 444.522Z" fill="black"/>
<path opacity="0.3" d="M266.809 446.636C266.054 436.631 261.775 433.239 258.486 432.119C257.745 431.866 256.93 432.273 256.63 433.018L253.316 441.233C252.585 443.051 253.138 445.033 254.479 445.403L264.897 448.281C265.914 448.566 266.893 447.714 266.809 446.636Z" fill="black"/>
<path d="M180.797 177.98C179.949 170.576 179.204 163.791 179.204 162.896C179.204 160.834 184.809 110.896 184.809 110.896C184.809 110.896 198.61 141.027 201.895 174.864C197.696 176.977 190.845 179.128 180.797 177.98Z" fill="#5E5DBA"/>
<path d="M183.839 198.05L183.183 198.387C183.183 198.387 183.122 197.876 183.014 196.981C183.29 197.347 183.567 197.703 183.839 198.05Z" fill="#F4A640"/>
<path d="M183.182 227.418C183.182 227.418 296.309 240.075 302.35 278.593C308.39 317.111 284.504 430.619 284.504 430.619C284.504 430.619 265.558 429.363 258.42 424.963C258.42 424.963 265.562 298.405 255.126 290.148C244.694 281.897 187.583 262.084 186.482 259.882C185.38 257.68 183.182 227.418 183.182 227.418Z" fill="#181786"/>
<path d="M183.182 227.418C183.182 227.418 258.416 268.687 258.416 292.899C258.416 317.111 229.309 407.353 207.893 427.161C207.893 427.161 194.711 424.958 183.182 418.909L208.994 302.252C208.994 302.252 94.2183 286.845 87.0812 259.882L115.302 230.168L183.182 227.418Z" fill="#5E5DBA"/>
<path d="M430.027 227.418H438.537V460.454H430.027V227.418Z" fill="#5E5DBA"/>
<path d="M349.713 227.418H358.224V460.454H349.713V227.418Z" fill="#5E5DBA"/>
<path d="M106.791 227.418H115.302V460.454H106.791V227.418Z" fill="#5E5DBA"/>
<path d="M26.4785 227.418H34.989V460.454H26.4785V227.418Z" fill="#5E5DBA"/>
<path d="M6.25711 230.168H457.577C459.649 230.168 461.326 228.491 461.326 226.42V219.058C461.326 216.987 459.649 215.309 457.577 215.309H6.25711C4.18576 215.309 2.50809 216.987 2.50809 219.058V226.42C2.50809 228.486 4.18576 230.168 6.25711 230.168Z" fill="#FEE4CB"/>
<path d="M136.503 79.58V102.869C136.503 104.162 137.243 105.343 138.41 105.892C141.962 107.56 149.91 110.292 157.328 105.934C158.331 105.348 158.922 104.242 158.922 103.08V82.0448L136.503 79.58Z" fill="#FFC0BB"/>
<path d="M136.503 92.0539V79.58L158.922 82.0448V92.6257C154.713 93.9049 146.887 95.1795 136.503 92.0539Z" fill="#F99893"/>
<path d="M173.238 54.5194C172.024 58.2119 173.43 61.9935 176.378 62.9681C179.326 63.9428 182.7 61.7357 183.914 58.0432C185.127 54.3508 183.721 50.5692 180.774 49.5946C177.826 48.6246 174.452 50.827 173.238 54.5194Z" fill="#F99893"/>
<path d="M173.655 75.6015C174.443 73.9895 175.085 72.2979 175.567 70.536C176.964 65.7985 177.494 60.8314 177.615 56.525C177.643 55.6019 177.718 54.6788 177.817 53.7603C178.206 50.0491 177.925 46.1597 176.79 42.2189C173.14 29.5434 161.387 20.612 148.218 20.5417C130.481 20.448 116.848 35.4149 118.029 52.6779C116.084 51.7642 113.966 51.6704 112.171 52.6263C108.727 54.4632 107.794 59.4444 110.081 63.7601C112.373 68.0712 117.017 70.0815 120.461 68.2446C120.939 67.9916 121.366 67.6682 121.746 67.3027C124.248 81.8854 137.037 92.3959 151.424 91.1635C158.458 90.5591 164.644 87.2508 169.124 82.3024C169.428 82.0119 169.742 81.6745 170.07 81.2808C171.518 79.5611 172.69 77.6352 173.655 75.6015Z" fill="#FFC0BB"/>
<path d="M145.092 53.4231C145.214 54.8664 144.146 56.1362 142.707 56.2627C141.264 56.3846 139.999 55.3162 139.872 53.8729C139.75 52.4297 140.819 51.1598 142.257 51.0333C143.701 50.9068 144.971 51.9799 145.092 53.4231Z" fill="#333333"/>
<path d="M167.634 52.9776C167.755 54.4209 166.687 55.6908 165.248 55.8173C163.81 55.9438 162.54 54.8708 162.418 53.4275C162.296 51.9842 163.364 50.7143 164.803 50.5878C166.242 50.4613 167.507 51.5297 167.634 52.9776Z" fill="#333333"/>
<path d="M147.801 47.9686C146.475 47.5516 145.219 47.2329 143.973 47.0502C142.726 46.8674 141.498 46.8487 140.308 47.0127C139.122 47.1907 137.932 47.4719 136.803 48.0248L136.362 48.2029C136.217 48.2638 136.086 48.3575 135.94 48.4278L135.078 48.8777C134.497 49.1916 133.963 49.5806 133.321 49.8945C133.654 49.29 134.033 48.6996 134.478 48.1561C134.975 47.6734 135.429 47.097 136.043 46.7221C137.182 45.8412 138.611 45.3211 140.055 45.1149C141.512 44.9134 143.007 45.1008 144.343 45.5975C145.678 46.113 146.911 46.8815 147.801 47.9686Z" fill="#333333"/>
<path d="M155.903 41.5693C156.718 40.426 157.894 39.5778 159.183 38.9733C160.486 38.3829 161.962 38.0971 163.429 38.1955C164.886 38.3032 166.348 38.7203 167.543 39.5216C168.181 39.8543 168.677 40.3932 169.202 40.843C169.685 41.3538 170.102 41.9208 170.477 42.5018C169.811 42.2347 169.254 41.8786 168.654 41.6069L167.763 41.2132C167.613 41.1523 167.477 41.0727 167.327 41.0211L166.878 40.8711C165.715 40.3978 164.506 40.201 163.311 40.1026C162.112 40.0183 160.889 40.1214 159.656 40.3932C158.424 40.6603 157.191 41.0632 155.903 41.5693Z" fill="#333333"/>
<path d="M150.972 44.2709C152.045 45.5736 152.997 46.9606 153.887 48.3898C154.778 49.819 155.584 51.2998 156.272 52.8602C156.601 53.6475 156.905 54.4534 157.088 55.3391C157.126 55.564 157.154 55.7936 157.158 56.042C157.163 56.1638 157.144 56.2997 157.135 56.4309C157.097 56.5762 157.083 56.7121 157.008 56.862C156.971 56.937 156.924 57.0119 156.882 57.0822L156.765 57.2134C156.685 57.2978 156.615 57.3868 156.535 57.4665C156.371 57.6165 156.207 57.7758 156.034 57.907C155.354 58.4646 154.613 58.8957 153.864 59.28C153.104 59.6548 152.331 59.9922 151.525 60.2452C152.926 59.3268 154.342 58.4084 155.499 57.2978C155.645 57.1619 155.771 57.012 155.902 56.8667L156.08 56.6465L156.165 56.5387C156.169 56.52 156.174 56.5012 156.183 56.4825C156.258 56.3091 156.216 55.8873 156.127 55.5312C155.944 54.7815 155.654 54.013 155.321 53.2632C154.679 51.7544 153.925 50.2689 153.184 48.7787C152.439 47.2886 151.684 45.7985 150.972 44.2709Z" fill="#F99893"/>
<path d="M122.972 8.37879C122.972 8.37879 131.238 0.684497 150.602 1.3171C169.966 1.9497 173.977 12.2775 175.542 27.1413L175.57 43.4859C175.57 43.4859 169.788 39.7137 162.782 25.1076C162.782 25.1076 152.359 37.9892 147.603 36.6397C142.842 35.2901 149.051 26.0541 149.051 26.0541C149.051 26.0541 128.582 46.4848 115.596 46.8363C115.596 46.8363 107.043 23.9127 116.421 15.2062C116.421 15.2062 109.166 15.7779 108.735 14.3112C108.304 12.8445 112.081 10.5203 119.092 11.1482C119.092 11.1482 113.796 1.22336 116.543 0.094047C119.289 -1.03527 122.972 8.37879 122.972 8.37879Z" fill="#333333"/>
<path d="M159.642 65.6985C158.803 68.8803 155.04 71.2562 150.546 71.2093C146.052 71.1671 142.336 68.721 141.558 65.5251L159.642 65.6985Z" fill="white"/>
<path d="M133.389 124.815C133.38 124.782 133.37 124.753 133.361 124.72C133.37 124.753 133.38 124.782 133.389 124.815Z" fill="#FFC0BB"/>
<path d="M132.789 122.771C132.775 122.729 132.766 122.687 132.752 122.644C132.766 122.687 132.78 122.729 132.789 122.771Z" fill="#FFC0BB"/>
<path d="M132.208 120.77C132.199 120.747 132.194 120.723 132.189 120.695C132.194 120.723 132.203 120.747 132.208 120.77Z" fill="#FFC0BB"/>
<path d="M131.163 117.135C131.159 117.116 131.154 117.097 131.144 117.073C131.154 117.092 131.159 117.116 131.163 117.135Z" fill="#FFC0BB"/>
<path d="M129.861 112.523C129.846 112.471 129.832 112.429 129.818 112.377C129.832 112.424 129.846 112.471 129.861 112.523Z" fill="#FFC0BB"/>
<path d="M114.129 187.788C135.386 186.931 150.339 172.428 150.339 172.428C151.038 173.538 151.68 174.297 152.237 174.611C158.826 178.327 242.172 196.176 250.41 195.454C258.648 194.733 266.404 202.952 268.049 209.278H237.495H235.377H128.351C128.347 209.278 113.679 186.987 114.129 187.788Z" fill="#FFC0BB"/>
<path d="M130.254 113.928C130.245 113.896 130.235 113.863 130.226 113.825C130.235 113.863 130.245 113.896 130.254 113.928Z" fill="#FFC0BB"/>
<path d="M130.709 115.54C130.69 115.47 130.671 115.404 130.653 115.334C130.671 115.4 130.69 115.47 130.709 115.54Z" fill="#FFC0BB"/>
<path d="M342.171 189.629V170.018L421.341 170.018V189.629H342.171Z" fill="#FDB827"/>
<path d="M322.879 209.677V189.626L432.772 189.626V209.677L322.879 209.677Z" fill="#142666"/>
<path d="M332.3 209.678V189.627H338.682V209.678H332.3Z" fill="white"/>
<path opacity="0.5" d="M3.74904 224.131H128.46C130.531 224.131 132.209 222.454 132.209 220.382V213.021C132.209 210.95 130.531 209.272 128.46 209.272H3.74904C1.67772 209.272 3.05176e-05 210.95 3.05176e-05 213.021V220.382C3.05176e-05 222.449 1.67772 224.131 3.74904 224.131Z" fill="#E0A689"/>
<path d="M121.859 101.246C124.825 104.203 126.864 107.961 127.993 112.001C131.555 124.77 143.927 162.051 150.169 171.967C150.169 171.967 133.504 188.733 112.247 189.59C104.829 176.428 97.3588 157.656 95.7889 139.423C93.0052 107.151 108.058 87.479 121.859 101.246Z" fill="#5E5DBA"/>
</svg>
